<svg version="1.1" id="Layer_1" xmlns="http://www.w3.org/2000/svg" xmlns:xlink="http://www.w3.org/1999/xlink" x="0px" y="0px"
	 width="100%" viewBox="0 0 136 148" enable-background="new 0 0 136 148" xml:space="preserve">
<path fill="#FEFFFE" opacity="1.000000" stroke="none" 
	d="
M81.000000,149.000000 
	C54.023335,149.000000 27.546671,149.000000 1.035004,149.000000 
	C1.035004,99.733467 1.035004,50.466900 1.035004,1.100168 
	C46.226437,1.100168 91.453171,1.100168 136.839951,1.100168 
	C136.839951,50.332912 136.839951,99.666412 136.839951,149.000000 
	C118.467247,149.000000 99.983620,149.000000 81.000000,149.000000 
M73.208618,135.910110 
	C109.891716,131.948257 133.768692,101.397774 128.070389,65.714722 
	C123.305374,35.875942 95.949203,14.345540 65.006218,16.080725 
	C35.095104,17.758045 10.057487,43.282715 9.037329,73.138359 
	C7.807197,109.139046 35.387135,136.531143 73.208618,135.910110 
z"/>
<path fill="#01C951" opacity="1.000000" stroke="none" 
	d="
M72.744019,135.929916 
	C35.387135,136.531143 7.807197,109.139046 9.037329,73.138359 
	C10.057487,43.282715 35.095104,17.758045 65.006218,16.080725 
	C95.949203,14.345540 123.305374,35.875942 128.070389,65.714722 
	C133.768692,101.397774 109.891716,131.948257 72.744019,135.929916 
M55.866344,92.400444 
	C55.866344,94.156372 55.866344,95.912292 55.866344,97.467728 
	C56.812420,97.764313 57.117268,97.941391 57.423416,97.943665 
	C62.241272,97.979462 67.059792,98.044701 71.877159,97.998566 
	C78.421227,97.935898 83.208328,94.715034 84.546028,89.589233 
	C85.906349,84.376785 84.171394,80.953667 77.699623,76.774612 
	C82.074951,74.429436 84.932251,70.632172 82.689621,66.260361 
	C81.284927,63.522030 77.489716,60.847244 74.422195,60.372482 
	C68.474213,59.451908 62.282928,60.103271 55.866287,60.103271 
	C55.866287,70.875603 55.866287,81.149803 55.866344,92.400444 
z"/>
<path fill="#F7FDFA" opacity="1.000000" stroke="none" 
	d="
M55.866318,91.912216 
	C55.866287,81.149803 55.866287,70.875603 55.866287,60.103271 
	C62.282928,60.103271 68.474213,59.451908 74.422195,60.372482 
	C77.489716,60.847244 81.284927,63.522030 82.689621,66.260361 
	C84.932251,70.632172 82.074951,74.429436 77.699623,76.774612 
	C84.171394,80.953667 85.906349,84.376785 84.546028,89.589233 
	C83.208328,94.715034 78.421227,97.935898 71.877159,97.998566 
	C67.059792,98.044701 62.241272,97.979462 57.423416,97.943665 
	C57.117268,97.941391 56.812420,97.764313 55.866344,97.467728 
	C55.866344,95.912292 55.866344,94.156372 55.866318,91.912216 
M73.479431,82.741180 
	C70.827263,82.308266 68.175095,81.875343 65.312195,81.408028 
	C65.312195,85.269753 65.312195,88.416573 65.312195,91.543259 
	C74.222443,91.821892 76.469345,89.617218 73.479431,82.741180 
M72.020370,73.816704 
	C72.410828,72.035187 73.613136,69.071724 73.047005,68.682861 
	C70.932533,67.230469 68.238609,66.621689 65.189072,65.482407 
	C65.189072,69.364380 65.189072,72.090538 65.189072,75.331062 
	C67.481537,74.898880 69.394333,74.538277 72.020370,73.816704 
z"/>
<path fill="#07CB55" opacity="1.000000" stroke="none" 
	d="
M73.793472,83.033607 
	C76.469345,89.617218 74.222443,91.821892 65.312195,91.543259 
	C65.312195,88.416573 65.312195,85.269753 65.312195,81.408028 
	C68.175095,81.875343 70.827263,82.308266 73.793472,83.033607 
z"/>
<path fill="#0DCC59" opacity="1.000000" stroke="none" 
	d="
M71.663750,73.997192 
	C69.394333,74.538277 67.481537,74.898880 65.189072,75.331062 
	C65.189072,72.090538 65.189072,69.364380 65.189072,65.482407 
	C68.238609,66.621689 70.932533,67.230469 73.047005,68.682861 
	C73.613136,69.071724 72.410828,72.035187 71.663750,73.997192 
z"/>
</svg>